<svg xmlns="http://www.w3.org/2000/svg" viewBox="0 0 90.26 161.59"><defs><style>.cls-1{fill:#f38e32;}</style></defs><title>Asset 6</title><g id="Layer_2" data-name="Layer 2"><g id="Layer_1-2" data-name="Layer 1"><path class="cls-1" d="M52.58,10.69V27C60.66,28,66.89,31.51,71.35,37.36A31.4,31.4,0,0,1,77.1,50.47H63.23A20.1,20.1,0,0,0,60,44.58a15.56,15.56,0,0,0-13-6.13C41.37,38.45,37,40,34,43s-4.52,7.28-4.52,12.69c0,5,1.57,9,4.76,12S42.65,73.38,50,75.8s13,5.14,17.11,8a28.26,28.26,0,0,1,9,10.26A29.88,29.88,0,0,1,79,107.74q0,12.48-7.28,20.06c-4.84,5.08-11.69,8.08-20.43,9v14.11H40.65V136.78c-8.88-.81-15.87-4.09-20.91-9.74a29.61,29.61,0,0,1-6.84-14.55H26.63a18.1,18.1,0,0,0,4,7.18c3.52,3.71,8.46,5.56,14.88,5.56s11.21-1.57,14.78-4.66,5.42-7.32,5.42-12.69a15.63,15.63,0,0,0-4.66-11.45C58,93.34,52.82,90.54,45.5,88c-10.22-3.19-17.63-7.37-22.34-12.5s-7-11.69-7-19.58q0-12.12,6.84-19.87c4.56-5.18,10.88-8.22,18.87-9.22V10.69H52.58M63.27,0H31.19V18.35A37,37,0,0,0,15,29C8.68,36.17,5.48,45.23,5.48,55.94S8.77,75.57,15.24,82.7c6.11,6.66,14.9,11.71,26.92,15.48,7.39,2.55,10.29,4.73,11.37,5.81a5,5,0,0,1,1.52,3.89c0,3.13-1.09,4.07-1.67,4.57-2,1.73-5.36,2.09-7.83,2.09-4.49,0-6.21-1.27-7.12-2.23a7.36,7.36,0,0,1-1.56-2.89l-2.28-7.62H0l2.39,12.67a40.28,40.28,0,0,0,9.36,19.68A38.79,38.79,0,0,0,30,145.6v16H62v-16a38.72,38.72,0,0,0,17.48-10.39c6.78-7,10.23-16.29,10.23-27.44a40.53,40.53,0,0,0-4-18.47A39,39,0,0,0,73.33,75.16c-5.08-3.61-11.79-6.79-20-9.51-7.57-2.5-10.62-4.69-11.77-5.76-.45-.43-1.38-1.31-1.38-4.24,0-2.48.46-4.21,1.38-5.12,1.2-1.21,4-1.39,5.51-1.39,2.47,0,3.57.77,4.54,2a9.29,9.29,0,0,1,1.49,2.77l2.47,7.25H90.26L87.57,48.28a42.32,42.32,0,0,0-7.76-17.47,36.14,36.14,0,0,0-16.54-12.2V0Z"/></g></g></svg>